<svg width="1024" height="1024" viewBox="0 0 1024 1024" fill="none" xmlns="http://www.w3.org/2000/svg">
<g id="1 - Layer">
<path id="logo" d="M889.652 389.282C852.898 321.152 780.983 278.734 702.778 278.995H111.065C107.069 279.012 103.166 280.203 99.8422 282.422C96.5187 284.641 93.9216 287.788 92.3744 291.473C90.8499 295.134 90.4529 299.166 91.2341 303.054C92.0154 306.942 93.9395 310.508 96.7598 313.295L225.659 441.202C237.04 452.531 252.545 459 268.677 459H685.81C715.542 458.687 739.844 482.106 740.158 511.42C740.471 540.735 716.639 564.713 686.907 565H399.325C395.326 565.002 391.416 566.218 388.083 568.427C384.75 570.637 382.141 573.779 380.583 577.462C379.043 581.127 378.636 585.169 379.413 589.067C380.19 592.965 382.115 596.542 384.942 599.337L513.919 727.348C525.372 738.671 540.833 745.013 556.938 744.994H687.011C856.24 744.994 984.199 566.447 889.652 389.204" fill="#FF3008"/>
</g>
</svg>
