<svg width="1024" height="1024" viewBox="0 0 1024 1024" fill="none" xmlns="http://www.w3.org/2000/svg">
<g id="4 - Layer">
<path id="logo" d="M667.193 510.281C651.103 480.456 619.621 461.886 585.385 462.001H326.352C324.603 462.008 322.894 462.529 321.439 463.501C319.984 464.472 318.847 465.85 318.17 467.463C317.503 469.065 317.329 470.831 317.671 472.533C318.013 474.235 318.855 475.796 320.09 477.016L376.518 533.01C381.5 537.969 388.288 541 395.35 541H577.957C590.973 540.863 601.612 550.916 601.749 563.749C601.886 576.582 591.453 586.874 578.437 587H452.543C450.793 587.001 449.081 587.737 447.622 588.705C446.163 589.672 445.021 591.048 444.338 592.66C443.665 594.264 443.486 596.033 443.826 597.74C444.167 599.447 445.009 601.012 446.247 602.236L502.709 658.275C507.722 663.232 514.491 666.008 521.541 666H578.483C652.566 666 708.582 587.838 667.193 510.246" fill="#FF3008"/>
</g>
</svg>
