<svg width="1024" height="1024" viewBox="0 0 1024 1024" fill="none" xmlns="http://www.w3.org/2000/svg">
<g id="4 - Layer">
<path id="logo" d="M666.835 588.281C650.745 558.456 619.263 539.886 585.027 540.001H325.994C324.244 540.008 322.536 540.529 321.081 541.501C319.626 542.472 318.489 543.85 317.812 545.463C317.144 547.065 316.97 548.831 317.312 550.533C317.655 552.235 318.497 553.796 319.731 555.016L376.159 611.01C381.142 615.969 387.929 619 394.991 619H577.599C590.615 618.863 601.253 628.916 601.391 641.749C601.528 654.582 591.095 664.874 578.079 665H452.185C450.434 665.001 448.723 665.737 447.263 666.705C445.804 667.672 444.662 669.048 443.98 670.66C443.306 672.264 443.128 674.033 443.468 675.74C443.808 677.447 444.651 679.012 445.888 680.236L502.351 736.275C507.364 741.232 514.132 744.008 521.183 744H578.125C652.208 744 708.224 665.838 666.835 588.246" fill="#FF3008"/>
</g>
</svg>
